<mxfile host="app.diagrams.net" modified="2022-05-11T13:19:04.656Z" agent="5.0 (Windows NT 10.0; Win64; x64) AppleWebKit/537.36 (KHTML, like Gecko) Chrome/101.0.4951.54 Safari/537.36" etag="9XicA86LtW68azPnUnqZ" version="18.0.2" type="github">
  <diagram id="e3ee7VH9cD06IdkCObMe" name="Page-1">
    <mxGraphModel dx="1422" dy="794" grid="1" gridSize="10" guides="1" tooltips="1" connect="1" arrows="1" fold="1" page="1" pageScale="1" pageWidth="827" pageHeight="1169" math="0" shadow="0">
      <root>
        <mxCell id="0" />
        <mxCell id="1" parent="0" />
        <mxCell id="j7BDHyjhUiOG8_7mTlr5-1" value="" style="ellipse;html=1;shape=startState;fillColor=#000000;strokeColor=#ff0000;" vertex="1" parent="1">
          <mxGeometry x="200" y="50" width="30" height="30" as="geometry" />
        </mxCell>
        <mxCell id="j7BDHyjhUiOG8_7mTlr5-2" value="" style="edgeStyle=orthogonalEdgeStyle;html=1;verticalAlign=bottom;endArrow=open;endSize=8;strokeColor=#ff0000;rounded=0;entryX=0.5;entryY=0;entryDx=0;entryDy=0;" edge="1" source="j7BDHyjhUiOG8_7mTlr5-1" parent="1" target="j7BDHyjhUiOG8_7mTlr5-9">
          <mxGeometry relative="1" as="geometry">
            <mxPoint x="215" y="130" as="targetPoint" />
          </mxGeometry>
        </mxCell>
        <mxCell id="j7BDHyjhUiOG8_7mTlr5-9" value="Wprowadzenie danych w systemie przez Uchodżce" style="rounded=1;whiteSpace=wrap;html=1;arcSize=40;fontColor=#000000;fillColor=#ffffc0;strokeColor=#ff0000;" vertex="1" parent="1">
          <mxGeometry x="155" y="140" width="120" height="40" as="geometry" />
        </mxCell>
        <mxCell id="j7BDHyjhUiOG8_7mTlr5-10" value="" style="edgeStyle=orthogonalEdgeStyle;html=1;verticalAlign=bottom;endArrow=open;endSize=8;strokeColor=#ff0000;rounded=0;entryX=0.5;entryY=0.3;entryDx=0;entryDy=0;entryPerimeter=0;" edge="1" source="j7BDHyjhUiOG8_7mTlr5-9" parent="1" target="j7BDHyjhUiOG8_7mTlr5-11">
          <mxGeometry relative="1" as="geometry">
            <mxPoint x="215" y="220" as="targetPoint" />
          </mxGeometry>
        </mxCell>
        <mxCell id="j7BDHyjhUiOG8_7mTlr5-11" value="" style="shape=line;html=1;strokeWidth=6;strokeColor=#ff0000;" vertex="1" parent="1">
          <mxGeometry x="115" y="240" width="200" height="10" as="geometry" />
        </mxCell>
        <mxCell id="j7BDHyjhUiOG8_7mTlr5-12" value="" style="edgeStyle=orthogonalEdgeStyle;html=1;verticalAlign=bottom;endArrow=open;endSize=8;strokeColor=#ff0000;rounded=0;entryX=0.5;entryY=0;entryDx=0;entryDy=0;" edge="1" source="j7BDHyjhUiOG8_7mTlr5-11" parent="1" target="j7BDHyjhUiOG8_7mTlr5-14">
          <mxGeometry relative="1" as="geometry">
            <mxPoint x="160" y="320" as="targetPoint" />
          </mxGeometry>
        </mxCell>
        <mxCell id="j7BDHyjhUiOG8_7mTlr5-13" value="" style="edgeStyle=orthogonalEdgeStyle;html=1;verticalAlign=bottom;endArrow=open;endSize=8;strokeColor=#ff0000;rounded=0;exitX=0.5;exitY=0.8;exitDx=0;exitDy=0;exitPerimeter=0;entryX=0.5;entryY=0;entryDx=0;entryDy=0;" edge="1" parent="1" source="j7BDHyjhUiOG8_7mTlr5-11" target="j7BDHyjhUiOG8_7mTlr5-17">
          <mxGeometry relative="1" as="geometry">
            <mxPoint x="310" y="320" as="targetPoint" />
            <mxPoint x="225" y="260" as="sourcePoint" />
          </mxGeometry>
        </mxCell>
        <mxCell id="j7BDHyjhUiOG8_7mTlr5-14" value="Sprawdzanie poprawności danych" style="rounded=1;whiteSpace=wrap;html=1;arcSize=40;fontColor=#000000;fillColor=#ffffc0;strokeColor=#ff0000;" vertex="1" parent="1">
          <mxGeometry x="100" y="330" width="110" height="40" as="geometry" />
        </mxCell>
        <mxCell id="j7BDHyjhUiOG8_7mTlr5-15" value="" style="edgeStyle=orthogonalEdgeStyle;html=1;verticalAlign=bottom;endArrow=open;endSize=8;strokeColor=#ff0000;rounded=0;" edge="1" source="j7BDHyjhUiOG8_7mTlr5-14" parent="1">
          <mxGeometry relative="1" as="geometry">
            <mxPoint x="156" y="430" as="targetPoint" />
          </mxGeometry>
        </mxCell>
        <mxCell id="j7BDHyjhUiOG8_7mTlr5-17" value="Sprawdzanie kompletności danych" style="rounded=1;whiteSpace=wrap;html=1;arcSize=40;fontColor=#000000;fillColor=#ffffc0;strokeColor=#ff0000;" vertex="1" parent="1">
          <mxGeometry x="230" y="330" width="120" height="40" as="geometry" />
        </mxCell>
        <mxCell id="j7BDHyjhUiOG8_7mTlr5-18" value="" style="edgeStyle=orthogonalEdgeStyle;html=1;verticalAlign=bottom;endArrow=open;endSize=8;strokeColor=#ff0000;rounded=0;" edge="1" source="j7BDHyjhUiOG8_7mTlr5-17" parent="1">
          <mxGeometry relative="1" as="geometry">
            <mxPoint x="290" y="430" as="targetPoint" />
          </mxGeometry>
        </mxCell>
        <mxCell id="j7BDHyjhUiOG8_7mTlr5-19" value="" style="shape=line;html=1;strokeWidth=6;strokeColor=#ff0000;" vertex="1" parent="1">
          <mxGeometry x="130" y="430" width="200" height="10" as="geometry" />
        </mxCell>
        <mxCell id="j7BDHyjhUiOG8_7mTlr5-20" value="" style="edgeStyle=orthogonalEdgeStyle;html=1;verticalAlign=bottom;endArrow=open;endSize=8;strokeColor=#ff0000;rounded=0;entryX=0.5;entryY=0;entryDx=0;entryDy=0;" edge="1" source="j7BDHyjhUiOG8_7mTlr5-19" parent="1" target="j7BDHyjhUiOG8_7mTlr5-21">
          <mxGeometry relative="1" as="geometry">
            <mxPoint x="230" y="490" as="targetPoint" />
          </mxGeometry>
        </mxCell>
        <mxCell id="j7BDHyjhUiOG8_7mTlr5-21" value="Condition" style="rhombus;whiteSpace=wrap;html=1;fillColor=#ffffc0;strokeColor=#ff0000;" vertex="1" parent="1">
          <mxGeometry x="190" y="480" width="80" height="40" as="geometry" />
        </mxCell>
        <mxCell id="j7BDHyjhUiOG8_7mTlr5-22" value="[Dane niepoprawne]" style="edgeStyle=orthogonalEdgeStyle;html=1;align=left;verticalAlign=bottom;endArrow=open;endSize=8;strokeColor=#ff0000;rounded=0;entryX=0.5;entryY=0;entryDx=0;entryDy=0;" edge="1" source="j7BDHyjhUiOG8_7mTlr5-21" parent="1" target="j7BDHyjhUiOG8_7mTlr5-25">
          <mxGeometry x="-1" relative="1" as="geometry">
            <mxPoint x="360" y="570" as="targetPoint" />
          </mxGeometry>
        </mxCell>
        <mxCell id="j7BDHyjhUiOG8_7mTlr5-23" value="[Dane poprawne]" style="edgeStyle=orthogonalEdgeStyle;html=1;align=left;verticalAlign=top;endArrow=open;endSize=8;strokeColor=#ff0000;rounded=0;entryX=0.5;entryY=0;entryDx=0;entryDy=0;" edge="1" source="j7BDHyjhUiOG8_7mTlr5-21" parent="1" target="j7BDHyjhUiOG8_7mTlr5-31">
          <mxGeometry x="0.2727" y="-28" relative="1" as="geometry">
            <mxPoint x="120" y="540" as="targetPoint" />
            <mxPoint x="8" y="-20" as="offset" />
          </mxGeometry>
        </mxCell>
        <mxCell id="j7BDHyjhUiOG8_7mTlr5-24" value="" style="ellipse;html=1;shape=endState;fillColor=#000000;strokeColor=#ff0000;" vertex="1" parent="1">
          <mxGeometry x="95" y="700" width="30" height="30" as="geometry" />
        </mxCell>
        <mxCell id="j7BDHyjhUiOG8_7mTlr5-25" value="" style="ellipse;html=1;shape=endState;fillColor=#000000;strokeColor=#ff0000;" vertex="1" parent="1">
          <mxGeometry x="340" y="540" width="30" height="30" as="geometry" />
        </mxCell>
        <mxCell id="j7BDHyjhUiOG8_7mTlr5-31" value="Założenie konta Uchodźcy" style="rounded=1;whiteSpace=wrap;html=1;arcSize=40;fontColor=#000000;fillColor=#ffffc0;strokeColor=#ff0000;" vertex="1" parent="1">
          <mxGeometry x="50" y="550" width="120" height="40" as="geometry" />
        </mxCell>
        <mxCell id="j7BDHyjhUiOG8_7mTlr5-32" value="" style="edgeStyle=orthogonalEdgeStyle;html=1;verticalAlign=bottom;endArrow=open;endSize=8;strokeColor=#ff0000;rounded=0;entryX=0.5;entryY=0;entryDx=0;entryDy=0;" edge="1" source="j7BDHyjhUiOG8_7mTlr5-31" parent="1" target="j7BDHyjhUiOG8_7mTlr5-33">
          <mxGeometry relative="1" as="geometry">
            <mxPoint x="110" y="640" as="targetPoint" />
          </mxGeometry>
        </mxCell>
        <mxCell id="j7BDHyjhUiOG8_7mTlr5-33" value="Przyznanie identyfikatora" style="rounded=1;whiteSpace=wrap;html=1;arcSize=40;fontColor=#000000;fillColor=#ffffc0;strokeColor=#ff0000;" vertex="1" parent="1">
          <mxGeometry x="50" y="630" width="120" height="40" as="geometry" />
        </mxCell>
        <mxCell id="j7BDHyjhUiOG8_7mTlr5-34" value="" style="edgeStyle=orthogonalEdgeStyle;html=1;verticalAlign=bottom;endArrow=open;endSize=8;strokeColor=#ff0000;rounded=0;entryX=0.5;entryY=0;entryDx=0;entryDy=0;" edge="1" source="j7BDHyjhUiOG8_7mTlr5-33" parent="1" target="j7BDHyjhUiOG8_7mTlr5-24">
          <mxGeometry relative="1" as="geometry">
            <mxPoint x="110" y="710" as="targetPoint" />
          </mxGeometry>
        </mxCell>
      </root>
    </mxGraphModel>
  </diagram>
</mxfile>
